<?xml version="1.0" encoding="UTF-8"?>
<!DOCTYPE svg PUBLIC "-//W3C//DTD SVG 1.1//EN" "http://www.w3.org/Graphics/SVG/1.1/DTD/svg11.dtd">
<svg xmlns="http://www.w3.org/2000/svg" version="1.1" width="716px" height="335px" style="shape-rendering:geometricPrecision; text-rendering:geometricPrecision; image-rendering:optimizeQuality; fill-rule:evenodd; clip-rule:evenodd" xmlns:xlink="http://www.w3.org/1999/xlink">
<g><path style="opacity:1" fill="#fadabd" d="M 245.5,27.5 C 243.503,102.159 242.836,177.159 243.5,252.5C 242.501,177.335 242.167,102.002 242.5,26.5C 243.791,26.2627 244.791,26.596 245.5,27.5 Z"/></g>
<g><path style="opacity:1" fill="#ed7d15" d="M 245.5,27.5 C 290.056,38.0558 334.389,49.0558 378.5,60.5C 378.829,113.572 378.495,166.572 377.5,219.5C 332.912,230.814 288.245,241.814 243.5,252.5C 242.836,177.159 243.503,102.159 245.5,27.5 Z M 369.5,207.5 C 358.598,208.819 347.598,208.819 336.5,207.5C 328.191,196.185 319.858,184.852 311.5,173.5C 300.854,172.501 290.187,172.168 279.5,172.5C 279.5,184.5 279.5,196.5 279.5,208.5C 270.167,208.5 260.833,208.5 251.5,208.5C 251.5,162.5 251.5,116.5 251.5,70.5C 276.867,70.068 302.201,70.568 327.5,72C 353.751,77.6017 366.751,93.935 366.5,121C 366.971,142.58 357.638,158.08 338.5,167.5C 348.842,180.863 359.175,194.197 369.5,207.5 Z"/></g>
<g><path style="opacity:1" fill="#ef8e33" d="M 378.5,60.5 C 379.167,86.8312 379.5,113.331 379.5,140C 379.5,166.842 378.833,193.342 377.5,219.5C 378.495,166.572 378.829,113.572 378.5,60.5 Z"/></g>
<g><path style="opacity:1" fill="#ed7d16" d="M 279.5,94.5 C 293.226,94.0734 306.893,94.5734 320.5,96C 334.338,102.844 339.838,114.011 337,129.5C 332.893,142.257 324.06,149.091 310.5,150C 300.172,150.5 289.839,150.666 279.5,150.5C 279.5,131.833 279.5,113.167 279.5,94.5 Z"/></g>
<g><path style="opacity:1" fill="#393939" d="M 102.5,183.5 C 103.482,180.038 103.815,176.371 103.5,172.5C 94.5,172.5 85.5,172.5 76.5,172.5C 76.5,166.833 76.5,161.167 76.5,155.5C 92.328,154.339 108.328,154.172 124.5,155C 125.655,168.091 125.822,181.258 125,194.5C 104.153,210.033 81.3197,213.866 56.5,206C 29.6529,193.14 18.4863,171.974 23,142.5C 33.6838,112.191 55.1838,98.358 87.5,101C 100.51,102.332 111.844,107.332 121.5,116C 117.018,121.316 112.352,126.483 107.5,131.5C 90.9766,119.511 73.9766,118.678 56.5,129C 42.6953,143.419 40.862,159.252 51,176.5C 66.3111,191.949 83.4777,194.282 102.5,183.5 Z"/></g>
<g><path style="opacity:1" fill="#373737" d="M 578.5,173.5 C 570.016,172.507 561.349,172.174 552.5,172.5C 552.5,166.833 552.5,161.167 552.5,155.5C 568.5,155.5 584.5,155.5 600.5,155.5C 600.833,168.85 600.499,182.183 599.5,195.5C 574.862,212.362 549.196,214.195 522.5,201C 499.57,184.475 492.403,162.642 501,135.5C 511.467,112.677 529.3,101.01 554.5,100.5C 568.408,100.415 581.075,104.249 592.5,112C 594.019,113.351 595.352,114.851 596.5,116.5C 592.555,121.948 588.055,126.948 583,131.5C 567.235,119.907 550.735,118.74 533.5,128C 517.269,143.991 515.769,161.157 529,179.5C 544.155,192.353 560.322,193.686 577.5,183.5C 578.487,180.232 578.82,176.898 578.5,173.5 Z"/></g>
<g><path style="opacity:1" fill="#9a9a9a" d="M 603.5,102.5 C 629.661,101.502 655.995,101.169 682.5,101.5C 682.823,108.022 682.49,114.355 681.5,120.5C 681.5,114.5 681.5,108.5 681.5,102.5C 655.5,102.5 629.5,102.5 603.5,102.5 Z"/></g>
<g><path style="opacity:1" fill="#383838" d="M 178.5,101.5 C 182.437,101.207 186.27,101.54 190,102.5C 206.432,137.865 223.266,173.031 240.5,208C 232.479,208.832 224.479,208.665 216.5,207.5C 213.629,200.925 210.629,194.425 207.5,188C 191.503,187.5 175.503,187.333 159.5,187.5C 156.833,194.5 154.167,201.5 151.5,208.5C 143.493,208.666 135.493,208.5 127.5,208C 144.369,172.428 161.369,136.928 178.5,101.5 Z M 199.5,168.5 C 188.986,168.828 178.653,168.494 168.5,167.5C 173.363,156.772 178.53,146.105 184,135.5C 189.181,146.526 194.347,157.526 199.5,168.5 Z"/></g>
<g><path style="opacity:1" fill="#383838" d="M 432.5,101.5 C 436.555,101.176 440.555,101.509 444.5,102.5C 460.894,137.621 477.561,172.621 494.5,207.5C 486.855,208.665 479.188,208.831 471.5,208C 468.371,201.575 465.371,195.075 462.5,188.5C 446.5,187.167 430.5,187.167 414.5,188.5C 411.593,195.06 408.593,201.56 405.5,208C 397.812,208.831 390.145,208.665 382.5,207.5C 399.178,172.145 415.845,136.812 432.5,101.5 Z M 453.5,167.5 C 443.5,168.833 433.5,168.833 423.5,167.5C 428.23,156.821 433.063,146.154 438,135.5C 443.421,146.009 448.587,156.676 453.5,167.5 Z"/></g>
<g><path style="opacity:1" fill="#383838" d="M 603.5,102.5 C 629.5,102.5 655.5,102.5 681.5,102.5C 681.5,108.5 681.5,114.5 681.5,120.5C 662.674,121.497 643.674,121.83 624.5,121.5C 624.5,130.167 624.5,138.833 624.5,147.5C 640.5,147.5 656.5,147.5 672.5,147.5C 672.5,153.833 672.5,160.167 672.5,166.5C 656.5,166.5 640.5,166.5 624.5,166.5C 624.5,174.167 624.5,181.833 624.5,189.5C 644.326,190.497 664.326,190.83 684.5,190.5C 684.5,196.5 684.5,202.5 684.5,208.5C 657.167,208.5 629.833,208.5 602.5,208.5C 602.168,172.996 602.502,137.663 603.5,102.5 Z"/></g>
<g><path style="opacity:1" fill="#969696" d="M 168.5,167.5 C 178.653,168.494 188.986,168.828 199.5,168.5C 188.993,169.823 178.326,169.823 167.5,168.5C 167.624,167.893 167.957,167.56 168.5,167.5 Z"/></g>
<g><path style="opacity:1" fill="#9a9a9a" d="M 423.5,167.5 C 433.5,168.833 443.5,168.833 453.5,167.5C 454.043,167.56 454.376,167.893 454.5,168.5C 443.833,169.833 433.167,169.833 422.5,168.5C 422.624,167.893 422.957,167.56 423.5,167.5 Z"/></g>
<g><path style="opacity:1" fill="#868686" d="M 76.5,155.5 C 76.5,161.167 76.5,166.833 76.5,172.5C 85.5,172.5 94.5,172.5 103.5,172.5C 103.815,176.371 103.482,180.038 102.5,183.5C 102.5,180.167 102.5,176.833 102.5,173.5C 93.5,173.5 84.5,173.5 75.5,173.5C 75.1771,167.31 75.5104,161.31 76.5,155.5 Z"/></g>
<g><path style="opacity:1" fill="#8b8b8b" d="M 600.5,155.5 C 584.5,155.5 568.5,155.5 552.5,155.5C 552.5,161.167 552.5,166.833 552.5,172.5C 561.349,172.174 570.016,172.507 578.5,173.5C 569.5,173.5 560.5,173.5 551.5,173.5C 551.5,167.167 551.5,160.833 551.5,154.5C 568.009,154.17 584.342,154.504 600.5,155.5 Z"/></g>
<g><path style="opacity:1" fill="#696969" d="M 624.5,189.5 C 644.833,189.5 665.167,189.5 685.5,189.5C 685.823,196.022 685.49,202.355 684.5,208.5C 684.5,202.5 684.5,196.5 684.5,190.5C 664.326,190.83 644.326,190.497 624.5,189.5 Z"/></g>
<g><path style="opacity:1" fill="#f29e4e" d="M 336.5,207.5 C 347.598,208.819 358.598,208.819 369.5,207.5C 370.043,207.56 370.376,207.893 370.5,208.5C 364.833,208.833 359.167,209.167 353.5,209.5C 347.458,209.496 341.792,208.829 336.5,207.5 Z"/></g>
<g><path style="opacity:1" fill="#f3903e" d="M 322.5,304.5 C 321.711,304.783 321.044,305.283 320.5,306C 325.489,306.499 330.489,306.666 335.5,306.5C 335.5,307.5 335.5,308.5 335.5,309.5C 328.679,310.655 321.679,310.821 314.5,310C 313.978,309.439 313.645,308.772 313.5,308C 316.952,303.545 320.786,299.378 325,295.5C 328.878,291.44 330.044,286.773 328.5,281.5C 323.821,278.529 319.654,279.196 316,283.5C 314.978,282.646 314.145,281.646 313.5,280.5C 320.845,272.618 327.679,272.952 334,281.5C 334.915,287.091 333.581,292.091 330,296.5C 327.715,299.432 325.215,302.098 322.5,304.5 Z"/></g>
<g><path style="opacity:1" fill="#f2903c" d="M 381.5,274.5 C 386.769,274.881 390.269,277.547 392,282.5C 394.458,290.792 393.791,298.792 390,306.5C 383.543,312.291 377.876,311.625 373,304.5C 370.753,296.037 371.087,287.704 374,279.5C 375.913,276.72 378.413,275.053 381.5,274.5 Z M 380.5,279.5 C 382.722,279.178 384.556,279.845 386,281.5C 389.458,289.441 389.291,297.275 385.5,305C 381.408,307.291 378.575,306.124 377,301.5C 376.333,295.833 376.333,290.167 377,284.5C 377.257,282.093 378.424,280.427 380.5,279.5 Z"/></g>
<g><path style="opacity:1" fill="#ed7b0e" d="M 36.5,291.5 C 126.506,290.836 216.173,291.503 305.5,293.5C 215.494,294.164 125.827,293.497 36.5,291.5 Z"/></g>
<g><path style="opacity:1" fill="#ed7b0e" d="M 670.5,291.5 C 581.173,293.497 491.506,294.164 401.5,293.5C 490.827,291.503 580.494,290.836 670.5,291.5 Z"/></g>
<g><path style="opacity:1" fill="#f19b49" d="M 36.5,291.5 C 125.827,293.497 215.494,294.164 305.5,293.5C 215.668,294.499 125.668,294.833 35.5,294.5C 35.2627,293.209 35.596,292.209 36.5,291.5 Z"/></g>
<g><path style="opacity:1" fill="#f19b49" d="M 670.5,291.5 C 671.404,292.209 671.737,293.209 671.5,294.5C 581.332,294.833 491.332,294.499 401.5,293.5C 491.506,294.164 581.173,293.497 670.5,291.5 Z"/></g>
<g><path style="opacity:1" fill="#f39240" d="M 351.5,303.5 C 357.016,303.473 358.349,305.64 355.5,310C 350.57,310.427 349.237,308.26 351.5,303.5 Z"/></g>
<g><path style="opacity:1" fill="#f6c18e" d="M 322.5,304.5 C 326.97,305.486 331.637,305.819 336.5,305.5C 336.768,307.099 336.434,308.432 335.5,309.5C 335.5,308.5 335.5,307.5 335.5,306.5C 330.489,306.666 325.489,306.499 320.5,306C 321.044,305.283 321.711,304.783 322.5,304.5 Z"/></g>
</svg>
